<?xml version="1.0" encoding="utf-8"?>
<!-- Generator: Adobe Illustrator 27.5.0, SVG Export Plug-In . SVG Version: 6.00 Build 0)  -->
<svg version="1.1" xmlns="http://www.w3.org/2000/svg" xmlns:xlink="http://www.w3.org/1999/xlink" x="0px" y="0px"
	 viewBox="0 0 500 500" style="enable-background:new 0 0 500 500;" xml:space="preserve">
<g id="BACKGROUND">
	<rect style="fill:#1e2f49;" width="500" height="500"/>
</g>
<g id="OBJECTS">
	<g>
		<path style="fill:#1e2f49" d="M469.139,310.564c0.742-15.897-0.989-32.308-8.235-46.477
			c-10.844-21.202-32.806-34.821-55.59-41.753c-22.783-6.932-46.834-8.163-70.489-10.914
			c-49.506-5.757-100.917-19.914-135.426-55.874c-31.534-32.859-47.955-82.569-89.579-101.05
			c-13.542-6.013-30.229-7.671-42.592,0.496c-5.329,3.52-9.455,8.59-12.968,13.924c-13.696,20.795-18.938,45.939-22.452,70.59
			c-3.547,24.882-5.549,50.714,1.758,74.762c6.778,22.306,21.043,41.421,32.358,61.803s19.941,44.208,13.999,66.751
			c-4.37,16.58-16.356,31.33-16.091,48.474c0.376,24.242,24.925,41.03,48.316,47.408c46.142,12.58,94.903,1.712,142.486-3.111
			c43.124-4.371,87.258-5.027,130.371-0.82c32.185,3.141,57.009-38.335,68.851-63.516
			C462.789,352.26,468.159,331.552,469.139,310.564z"/>
		<g>
			<g>
				<ellipse style="fill:#1D1D1B;" cx="269.103" cy="436.761" rx="167.744" ry="8.294"/>
				<path style="fill:#A2D0F8;" d="M396.593,436.61H146.121c-5.104,0-9.242-4.138-9.242-9.242V40.526
					c0-5.104,4.138-9.242,9.242-9.242h250.473c5.104,0,9.241,4.138,9.241,9.242v386.843
					C405.835,432.473,401.697,436.61,396.593,436.61z"/>
				<g>
					<rect x="155.463" y="58.317" style="fill:#FFFFFF;" width="231.789" height="324.864"/>
					<g>
						<g>
							
								<rect x="176.232" y="123.01" style="fill:none;stroke:#1D1D1B;stroke-linecap:round;stroke-linejoin:round;stroke-miterlimit:10;" width="18.28" height="18.28"/>
							
								<line style="fill:none;stroke:#1D1D1B;stroke-linecap:round;stroke-linejoin:round;stroke-miterlimit:10;" x1="202.825" y1="141.29" x2="363.101" y2="141.29"/>
						</g>
						<g>
							
								<rect x="176.232" y="148.969" style="fill:none;stroke:#1D1D1B;stroke-linecap:round;stroke-linejoin:round;stroke-miterlimit:10;" width="18.28" height="18.28"/>
							
								<line style="fill:none;stroke:#1D1D1B;stroke-linecap:round;stroke-linejoin:round;stroke-miterlimit:10;" x1="202.825" y1="167.25" x2="363.101" y2="167.25"/>
						</g>
						<g>
							
								<rect x="176.232" y="174.928" style="fill:none;stroke:#1D1D1B;stroke-linecap:round;stroke-linejoin:round;stroke-miterlimit:10;" width="18.28" height="18.281"/>
							
								<line style="fill:none;stroke:#1D1D1B;stroke-linecap:round;stroke-linejoin:round;stroke-miterlimit:10;" x1="202.825" y1="193.209" x2="363.101" y2="193.209"/>
						</g>
						<g>
							
								<rect x="176.232" y="200.888" style="fill:none;stroke:#1D1D1B;stroke-linecap:round;stroke-linejoin:round;stroke-miterlimit:10;" width="18.28" height="18.281"/>
							
								<line style="fill:none;stroke:#1D1D1B;stroke-linecap:round;stroke-linejoin:round;stroke-miterlimit:10;" x1="202.825" y1="219.168" x2="363.101" y2="219.168"/>
						</g>
						<g>
							
								<rect x="176.232" y="226.847" style="fill:none;stroke:#1D1D1B;stroke-linecap:round;stroke-linejoin:round;stroke-miterlimit:10;" width="18.28" height="18.281"/>
							
								<line style="fill:none;stroke:#1D1D1B;stroke-linecap:round;stroke-linejoin:round;stroke-miterlimit:10;" x1="202.825" y1="245.128" x2="363.101" y2="245.128"/>
						</g>
						<g>
							
								<rect x="176.232" y="252.807" style="fill:none;stroke:#1D1D1B;stroke-linecap:round;stroke-linejoin:round;stroke-miterlimit:10;" width="18.28" height="18.28"/>
							
								<line style="fill:none;stroke:#1D1D1B;stroke-linecap:round;stroke-linejoin:round;stroke-miterlimit:10;" x1="202.825" y1="271.087" x2="363.101" y2="271.087"/>
						</g>
						<g>
							
								<rect x="176.232" y="278.766" style="fill:none;stroke:#1D1D1B;stroke-linecap:round;stroke-linejoin:round;stroke-miterlimit:10;" width="18.28" height="18.28"/>
							
								<line style="fill:none;stroke:#1D1D1B;stroke-linecap:round;stroke-linejoin:round;stroke-miterlimit:10;" x1="202.825" y1="297.046" x2="363.101" y2="297.046"/>
						</g>
						<g>
							
								<rect x="176.232" y="304.725" style="fill:none;stroke:#1D1D1B;stroke-linecap:round;stroke-linejoin:round;stroke-miterlimit:10;" width="18.28" height="18.281"/>
							
								<line style="fill:none;stroke:#1D1D1B;stroke-linecap:round;stroke-linejoin:round;stroke-miterlimit:10;" x1="202.825" y1="323.006" x2="363.101" y2="323.006"/>
						</g>
						<g>
							
								<rect x="176.232" y="330.684" style="fill:none;stroke:#1D1D1B;stroke-linecap:round;stroke-linejoin:round;stroke-miterlimit:10;" width="18.28" height="18.281"/>
							
								<line style="fill:none;stroke:#1D1D1B;stroke-linecap:round;stroke-linejoin:round;stroke-miterlimit:10;" x1="202.825" y1="348.965" x2="363.101" y2="348.965"/>
						</g>
					</g>
					<g>
						<g>
							<path style="fill:#A2D0F8;" d="M183.743,136.235c-0.362,0-0.716-0.13-0.993-0.372c-3.259-2.843-6.739-5.497-10.344-7.888
								c-0.695-0.461-0.885-1.399-0.424-2.094c0.461-0.695,1.399-0.885,2.094-0.424c3.187,2.114,6.279,4.426,9.214,6.89
								c5.128-9.164,13.973-16.353,24.005-19.42c0.798-0.244,1.643,0.205,1.887,1.003c0.244,0.798-0.205,1.643-1.003,1.887
								c-9.867,3.017-18.495,10.336-23.081,19.579c-0.208,0.419-0.599,0.719-1.059,0.81
								C183.94,136.225,183.841,136.235,183.743,136.235z"/>
						</g>
						<g>
							<path style="fill:#A2D0F8;" d="M183.743,239.684c-0.362,0-0.716-0.13-0.993-0.372c-3.259-2.843-6.739-5.497-10.344-7.888
								c-0.695-0.461-0.885-1.399-0.424-2.094c0.461-0.695,1.399-0.885,2.094-0.424c3.187,2.113,6.279,4.426,9.214,6.89
								c5.128-9.164,13.973-16.353,24.005-19.42c0.798-0.245,1.643,0.205,1.887,1.003c0.244,0.798-0.205,1.643-1.003,1.887
								c-9.867,3.017-18.495,10.336-23.081,19.579c-0.208,0.419-0.599,0.719-1.059,0.81
								C183.94,239.675,183.841,239.684,183.743,239.684z"/>
						</g>
					</g>
				</g>
				<g>
					<path style="fill:#798ED0;" d="M317.702,66.582h-92.691c-2.388,0-4.325-1.936-4.325-4.325v-15.44h101.34v15.44
						C322.027,64.646,320.091,66.582,317.702,66.582z"/>
					<path style="fill:#798ED0;" d="M300.963,29.568h-59.211V16.125c0-1.904,1.544-3.448,3.448-3.448h52.316
						c1.904,0,3.448,1.544,3.448,3.448V29.568z"/>
					<g>
						<polygon style="fill:#6C6B82;" points="347.462,27.052 195.251,27.052 188.729,33.575 189.76,51.489 352.954,51.489 
							353.985,33.575 						"/>
						
							<line style="fill:none;stroke:#1D1D1B;stroke-width:0.5;stroke-linecap:round;stroke-linejoin:round;stroke-miterlimit:10;" x1="188.729" y1="33.575" x2="353.985" y2="33.575"/>
					</g>
					
						<rect x="220.687" y="51.489" style="fill:#1D1D1B;stroke:#1D1D1B;stroke-width:0.5;stroke-linecap:round;stroke-linejoin:round;stroke-miterlimit:10;" width="101.34" height="3.594"/>
					
						<rect x="241.751" y="24.177" style="fill:#1D1D1B;stroke:#1D1D1B;stroke-width:0.5;stroke-linecap:round;stroke-linejoin:round;stroke-miterlimit:10;" width="59.211" height="2.875"/>
				</g>
			</g>
			<g>
				<ellipse style="fill:#1D1D1B;" cx="304.701" cy="467.223" rx="43.11" ry="7.371"/>
				<g>
					<g>
						<polygon style="fill:#9FD3ED;" points="203.665,219.155 201.15,217.3 206.311,208.076 211.244,211.715 						"/>
						<path style="fill:#E0E3FA;" d="M211.244,211.715c-0.641,0.869-2.265,0.758-3.627-0.247c-1.362-1.005-1.947-2.524-1.307-3.393
							c0.641-0.869,2.265-0.758,3.627,0.247C211.3,209.327,211.885,210.846,211.244,211.715z"/>
						
							<path style="fill:none;stroke:#1D1D1B;stroke-width:0.5;stroke-linecap:round;stroke-linejoin:round;stroke-miterlimit:10;" d="
							M206.311,208.076c0,0-0.871,1.786,1.307,3.393s3.627,0.247,3.627,0.247"/>
					</g>
					<g>
						<path style="fill:#FFD6D9;" d="M310.477,365.733c-0.243,0.08,0,7.701,0,7.701s1.094,4.418,1.184,16.228
							c0.09,11.81-2.434,30.832-4.147,39.487c-1.713,8.655-5.139,26.595-5.139,27.857c0,1.262,2.704,4.417,1.533,6.581
							c-1.172,2.164-16.588-3.606-16.588-3.606s-3.877-4.868-2.434-5.499c1.442-0.631,4.778-0.902,4.778-0.902
							s1.713-53.551,1.442-61.033c-0.271-7.483-2.214-12.802-1.648-15.326c0.566-2.524,0.566-6.671,0.566-6.671L310.477,365.733z"/>
						
							<line style="fill:none;stroke:#1D1D1B;stroke-width:0.5;stroke-linecap:round;stroke-linejoin:round;stroke-miterlimit:10;" x1="289.676" y1="453.216" x2="289.213" y2="457.185"/>
						<path style="fill:#798ED0;" d="M304.81,460.25c0,0,0.451,7.933-1.713,14.064c0,0-5.229,0.631-8.745,0
							c0,0-1.623-5.139-1.803-5.68c-0.18-0.541-1.893,0.992-3.336,1.082c-1.442,0.09-7.392-9.917-7.392-13.974
							c0-4.057,5.766-1.915,5.766-1.915s-2.16,1.194,0.815,3.357c2.975,2.164,5.319,3.516,8.294,3.336
							C299.671,460.341,302.015,459.259,304.81,460.25z"/>
						<path style="fill:#1D1D1B;" d="M292.549,468.635c0,0-1.713-2.254-2.254-2.795c-0.541-0.541-1.082,3.876-1.082,3.876
							L292.549,468.635z"/>
						<path style="fill:#1D1D1B;" d="M289.676,375.992c0,0,5.406,3.151,8.438,2.67c3.032-0.481,12.363-5.229,12.363-5.229v-7.701
							l-20.452,4.816L289.676,375.992z"/>
					</g>
					<g>
						<path style="fill:#6C6B82;" d="M345.2,271.291c0,0,2.864,20.915,2.018,27.677c-0.846,6.762-8.96,50.846-9.591,54.362
							c-0.631,3.516-1.533,10.548-2.344,11.449s-19.383,5.77-25.243,7.573c-5.86,1.803-11.539,1.803-13.252,1.713
							c-1.713-0.09-13.613-3.786-13.613-3.786s-3.336-37.654-4.778-47.586c-1.442-9.932-2.434-28.864-1.713-35.174
							c0.721-6.311,2.134-14.009,2.134-14.009L345.2,271.291z"/>
						
							<path style="fill:none;stroke:#1D1D1B;stroke-width:0.5;stroke-linecap:round;stroke-linejoin:round;stroke-miterlimit:10;" d="
							M282.949,367.75c0,0,9.151,3.249,15.732,3.43c6.581,0.18,37.558-9.618,37.558-9.618"/>
					</g>
					<g>
						<polygon style="fill:#FFD6D9;" points="356.629,236.788 344.188,265.616 339.791,260.022 337.808,235.861 356.629,234.689 
													"/>
						
							<path style="fill:#1D1D1B;stroke:#1D1D1B;stroke-width:0.5;stroke-linecap:round;stroke-linejoin:round;stroke-miterlimit:10;" d="
							M337.808,238.475c0,0,8.474,1.262,11.9,1.262c3.426,0,6.037-0.631,6.037-0.631l0.884-2.318v-2.1l-18.821,1.172V238.475z"/>
					</g>
					<g>
						<path style="fill:#FFD6D9;" d="M231.958,219.453l-21.445,3.245c0,0,0.18-3.377-0.811-3.852
							c-0.992-0.475-3.696-2.368-3.696-2.368s-3.245-5.049-4.598-5.319c-1.352-0.27-3.245,0.451-3.155,1.352
							c0.09,0.901-0.003,1.893-0.003,1.893s-2.792,1.114-2.701,2.495c0.09,1.381-0.002,2.553-0.002,2.553s-1.891,5.319-0.809,7.483
							c1.082,2.164,8.474,4.508,11.269,5.499c2.795,0.992,21.817,2.164,24.702,2.614c2.885,0.451,7.753-1.352,7.753-1.352
							L231.958,219.453z"/>
						
							<polygon style="fill:#1D1D1B;stroke:#1D1D1B;stroke-width:0.5;stroke-linecap:round;stroke-linejoin:round;stroke-miterlimit:10;" points="
							210.512,222.699 207.177,222.699 210.404,220.344 						"/>
					</g>
					<g>
						<path style="fill:#FFD6D9;" d="M267.038,139.037l3.426,23.169l2.614-0.721c0,0,3.606,10.638,5.59,11.359
							c1.983,0.721,9.827-3.696,9.827-3.696l2.434,4.778l16.859-5.499l-1.893-6.942l-19.293-27.587l-18.031,1.713L267.038,139.037z"
							/>
						<g>
							
								<path style="fill:#1D1D1B;stroke:#1D1D1B;stroke-width:0.5;stroke-linecap:round;stroke-linejoin:round;stroke-miterlimit:10;" d="
								M284.167,155.355c0,0,1.893,2.164,3.246,1.533l0.954,1.218C288.367,158.106,285.88,158.33,284.167,155.355z"/>
							
								<polygon style="fill:#1D1D1B;stroke:#1D1D1B;stroke-width:0.5;stroke-linecap:round;stroke-linejoin:round;stroke-miterlimit:10;" points="
								288.494,169.148 292.551,166.714 289.72,171.555 							"/>
							
								<path style="fill:none;stroke:#1D1D1B;stroke-width:0.5;stroke-linecap:round;stroke-linejoin:round;stroke-miterlimit:10;" d="
								M275.963,166.083c0,0,2.705-1.082,2.615-3.876"/>
							<path style="fill:#1D1D1B;" d="M273.479,152.264c0.139,0.738-0.05,1.394-0.423,1.464c-0.373,0.07-0.788-0.471-0.927-1.21
								c-0.139-0.738,0.05-1.394,0.423-1.464C272.925,150.984,273.34,151.526,273.479,152.264z"/>
							<g>
								<path style="fill:#1D1D1B;" d="M275.355,147.937c-0.192,0.485-1.372,0.432-2.688,0.432c-1.316,0-2.496,0.053-2.688-0.432
									c-0.192-0.485,0.981-1.457,2.688-1.457C274.374,146.48,275.547,147.452,275.355,147.937z"/>
							</g>
							
								<path style="fill:#1D1D1B;stroke:#1D1D1B;stroke-width:0.5;stroke-linecap:round;stroke-linejoin:round;stroke-miterlimit:10;" d="
								M283.446,147.962c0,0,1.315-1.713,2.821,1.442"/>
						</g>
					</g>
					<g>
						<path style="fill:#798ED0;" d="M264.424,135.431c0,0,2.434,9.015,14.154,8.655c0,0,1.803,6.221,2.524,6.221
							s1.172-0.27,1.352-0.631c0.18-0.361-0.901-4.868,1.983-3.967c2.885,0.902,4.327,5.499,3.967,8.204
							c-0.361,2.705-0.992,2.975-0.992,2.975s5.499,7.573,10.097,8.023l-1.082-2.254c0,0,2.434,2.344,7.122,1.442
							c4.688-0.902,7.212-10.638,6.761-20.374c0,0,9.015,0.541,9.466-7.573c0.451-8.114-5.59-16.228-8.474-17.309
							c-2.885-1.082-9.105,2.434-9.105,2.434s-3.516-4.778-8.384-3.336c0,0-8.204-0.541-15.596,3.516
							c-7.393,4.057-9.286,7.032-9.286,7.032S263.021,132.576,264.424,135.431z"/>
						<g>
							
								<path style="fill:none;stroke:#1D1D1B;stroke-width:0.5;stroke-linecap:round;stroke-linejoin:round;stroke-miterlimit:10;" d="
								M302.198,121.277c0,0-4.598,1.082-4.147,6.401c0.451,5.319,4.147,13.613,7.302,15.146c3.155,1.533,4.958,0.902,4.958,0.902"
								/>
							
								<path style="fill:none;stroke:#1D1D1B;stroke-width:0.5;stroke-linecap:round;stroke-linejoin:round;stroke-miterlimit:10;" d="
								M305.353,142.823c0,0,13.03,1.172,14.448-7.483"/>
							
								<path style="fill:none;stroke:#1D1D1B;stroke-width:0.5;stroke-linecap:round;stroke-linejoin:round;stroke-miterlimit:10;" d="
								M298.406,128.219c0,0,4.284-8.413,15.618-7.227"/>
							
								<path style="fill:none;stroke:#1D1D1B;stroke-width:0.5;stroke-linecap:round;stroke-linejoin:round;stroke-miterlimit:10;" d="
								M318.032,127.342c0,0-3.033,5.564-9.884,6.556"/>
							
								<path style="fill:none;stroke:#1D1D1B;stroke-width:0.5;stroke-linecap:round;stroke-linejoin:round;stroke-miterlimit:10;" d="
								M278.578,144.085c0,0,11.179,0.234,18.481-4.977"/>
							
								<path style="fill:none;stroke:#1D1D1B;stroke-width:0.5;stroke-linecap:round;stroke-linejoin:round;stroke-miterlimit:10;" d="
								M298.406,129.984c0,0-10.542-5.011-20.82-0.773"/>
							
								<path style="fill:none;stroke:#1D1D1B;stroke-width:0.5;stroke-linecap:round;stroke-linejoin:round;stroke-miterlimit:10;" d="
								M299.426,123.01c0,0-2.097-4.167-5.613-5.069"/>
							
								<path style="fill:none;stroke:#1D1D1B;stroke-width:0.5;stroke-linecap:round;stroke-linejoin:round;stroke-miterlimit:10;" d="
								M307.156,143.854c0,0,1.172,10.96-3.877,18.353"/>
						</g>
					</g>
					<path style="fill:#FFE0BC;" d="M283.446,178.344c0,0,0.631-4.688,12.351-9.917c11.72-5.229,22.235-4.868,22.235-4.868
						l1.77,3.967c0,0,13.138,4.147,13.859,4.778c0.721,0.631,1.352,2.344,1.352,2.344s4.598,5.229,7.483,12.261
						c2.885,7.032,13.162,36.692,13.162,36.692s1.893-0.721,3.246,2.254c1.352,2.975,0.631,8.564,0,9.736
						c-0.631,1.172-7.122,2.524-9.286,2.614c-2.164,0.09-10.638-0.451-10.638-0.451s2.164,18.211,4.147,24.251
						c1.983,6.04,2.073,9.286,2.073,9.286s-22.087,1.893-40.569,2.614c-18.481,0.721-26.234-0.451-26.234-0.451l4.237-25.333v-11.9
						l-6.491-25.694c0,0-13.793,8.384-15.596,9.917c-1.803,1.533-12.982,9.827-12.982,9.827s0.902,0.902,0.361,1.713
						c-0.541,0.811-6.491,3.786-8.204,3.877c-1.713,0.09-4.868-3.786-6.13-7.392c-1.262-3.606-1.713-7.434-1.623-9.622
						c0.09-2.188,4.417-4.622,5.589-5.163c1.172-0.541,2.254-0.361,2.254-0.361s0.541-2.254,2.254-3.245
						c1.713-0.992,6.311-3.426,6.311-3.426s13.523-17.399,15.326-18.572C265.505,186.908,283.446,178.344,283.446,178.344z"/>
					<g>
						
							<path style="fill:none;stroke:#1D1D1B;stroke-width:0.5;stroke-linecap:round;stroke-linejoin:round;stroke-miterlimit:10;" d="
							M283.446,178.344c0,0,20.332-9.466,36.355-10.818"/>
						
							<path style="fill:none;stroke:#1D1D1B;stroke-width:0.5;stroke-linecap:round;stroke-linejoin:round;stroke-miterlimit:10;" d="
							M337.808,186.277c0,0,1.352,22.538,1.262,29.931c-0.09,7.393-0.09,21.546-0.09,21.546"/>
						
							<path style="fill:none;stroke:#1D1D1B;stroke-width:0.5;stroke-linecap:round;stroke-linejoin:round;stroke-miterlimit:10;" d="
							M338.992,229.46c0,0,10.806,2.434,14.142,0c3.336-2.434,2.524-5.86,2.524-5.86"/>
						
							<path style="fill:none;stroke:#1D1D1B;stroke-width:0.5;stroke-linecap:round;stroke-linejoin:round;stroke-miterlimit:10;" d="
							M239.812,213.323c0,0-0.902,0.721-0.451,2.795c0.451,2.074,3.245,11.72,7.483,14.424"/>
						
							<path style="fill:none;stroke:#1D1D1B;stroke-width:0.5;stroke-linecap:round;stroke-linejoin:round;stroke-miterlimit:10;" d="
							M249.008,207.192c0,0-0.541,4.237,1.893,4.598"/>
					</g>
					
						<path style="fill:none;stroke:#1D1D1B;stroke-width:0.5;stroke-linecap:round;stroke-linejoin:round;stroke-miterlimit:10;" d="
						M278.818,270.94c0,0,9.947,1.613,27.887,0.621c17.94-0.992,38.218-2.553,38.218-2.553"/>
					<g>
						<path style="fill:#FFD6D9;" d="M332.927,365.733c-0.243,0.08,0,7.701,0,7.701s1.094,4.418,1.184,16.228
							c0.09,11.81-2.434,30.832-4.147,39.487c-1.713,8.655-5.139,26.595-5.139,27.857c0,1.262,2.705,4.417,1.533,6.581
							c-1.172,2.164-16.588-3.606-16.588-3.606s-3.876-4.868-2.434-5.499c1.442-0.631,4.778-0.902,4.778-0.902
							s1.713-53.551,1.442-61.033c-0.27-7.483-2.214-12.802-1.648-15.326c0.566-2.524,0.566-6.671,0.566-6.671L332.927,365.733z"/>
						
							<line style="fill:none;stroke:#1D1D1B;stroke-width:0.5;stroke-linecap:round;stroke-linejoin:round;stroke-miterlimit:10;" x1="312.126" y1="453.216" x2="311.664" y2="457.185"/>
						<polygon style="fill:#1D1D1B;" points="312.329,374.095 332.82,367.934 332.927,365.733 312.475,370.549 						"/>
						<path style="fill:#798ED0;" d="M327.26,460.25c0,0,0.451,7.933-1.713,14.064c0,0-5.229,0.631-8.745,0
							c0,0-1.623-5.139-1.803-5.68c-0.18-0.541-1.893,0.992-3.336,1.082c-1.442,0.09-7.393-9.917-7.393-13.974
							c0-4.057,5.767-1.915,5.767-1.915s-2.16,1.194,0.815,3.357c2.975,2.164,5.319,3.516,8.294,3.336
							C322.121,460.341,324.465,459.259,327.26,460.25z"/>
						<path style="fill:#1D1D1B;" d="M314.999,468.635c0,0-1.713-2.254-2.254-2.795c-0.541-0.541-1.082,3.876-1.082,3.876
							L314.999,468.635z"/>
					</g>
				</g>
			</g>
			<g>
				<ellipse style="fill:#1D1D1B;" cx="112.238" cy="464.072" rx="54.753" ry="10.377"/>
				<g>
					<g>
						<g>
							<path style="fill:#CFAD97;" d="M141.267,117.711c0,0-0.962,28.007-1.803,30.291h-2.765v3.967h-23.921l-1.082-7.332
								l23.079-27.526L141.267,117.711z"/>
							<g>
								
									<path style="fill:#1D1D1B;stroke:#1D1D1B;stroke-width:0.5;stroke-linecap:round;stroke-linejoin:round;stroke-miterlimit:10;" d="
									M132.132,135.381c0,0,0.842,4.327,3.726,2.644C135.858,138.025,132.613,142.353,132.132,135.381z"/>
								
									<polygon style="fill:#1D1D1B;stroke:#1D1D1B;stroke-width:0.5;stroke-linecap:round;stroke-linejoin:round;stroke-miterlimit:10;" points="
									136.699,148.002 133.995,148.002 136.699,150.767 								"/>
								
									<path style="fill:#1D1D1B;stroke:#1D1D1B;stroke-width:0.5;stroke-linecap:round;stroke-linejoin:round;stroke-miterlimit:10;" d="
									M133.995,132.565c0,0,0.162-4.975,1.352-4.662"/>
							</g>
						</g>
						<g>
							<path style="fill:#6C6B82;" d="M111.91,146.083c0,0,12.889,0.477,16.735-1.326l3.486-9.376c0,0,0.481-9.977,2.765-9.376
								c2.284,0.601,1.923,5.77,1.923,5.77s0.841,0,1.202-1.322c0.361-1.322,0.601-7.453,0.601-7.453s2.885-3.366,3.486-5.89
								c0,0,3.005-2.284,3.486-4.808c0.481-2.524,0-3.726,0-3.726s-0.481-5.77-5.89-6.251c0,0-2.885-4.808-7.693-3.245
								c0,0-7.693-3.87-12.742-0.312c0,0-5.289-0.89-7.573,1.875c0,0-6.491,0.24-7.212,5.77c0,0-3.005,3.486-1.442,7.332
								c0,0-2.524,3.245,0.481,6.611c0,0-1.082,5.289,2.044,7.934c0,0-1.442,4.447,1.322,7.332c0,0,0.12,5.048,2.164,6.491
								C109.053,142.112,109.119,146.928,111.91,146.083z"/>
							<g>
								
									<path style="fill:none;stroke:#1D1D1B;stroke-width:0.5;stroke-linecap:round;stroke-linejoin:round;stroke-miterlimit:10;" d="
									M108.246,120.111c-1.091-1.596-0.637-4.04,0.955-5.137c-0.552-2.069,0.402-4.447,2.232-5.559"/>
								
									<path style="fill:none;stroke:#1D1D1B;stroke-width:0.5;stroke-linecap:round;stroke-linejoin:round;stroke-miterlimit:10;" d="
									M133.59,103.633c0.834-0.3,1.79,0.152,2.343,0.844c0.553,0.692,0.792,1.577,1.01,2.437c0.951-0.523,2.209-0.281,3.025,0.435
									c0.815,0.716,1.217,1.824,1.244,2.908"/>
								
									<path style="fill:none;stroke:#1D1D1B;stroke-width:0.5;stroke-linecap:round;stroke-linejoin:round;stroke-miterlimit:10;" d="
									M128.867,110.223c0.692-0.339,1.561,0.117,1.946,0.784c0.384,0.667,0.411,1.475,0.428,2.245
									c0.941-0.209,1.982,0.114,2.64,0.819c0.658,0.705,0.908,1.766,0.634,2.69"/>
								
									<path style="fill:none;stroke:#1D1D1B;stroke-width:0.5;stroke-linecap:round;stroke-linejoin:round;stroke-miterlimit:10;" d="
									M123.819,120.022c0.943,0.641,1.202,2.095,0.537,3.022"/>
							</g>
						</g>
					</g>
					<path style="fill:#798ED0;" d="M205.215,146.182c-8.895-10.234-17.79-6.83-17.79-6.83v28.363c0,0-7.933-0.842-11.9-2.044
						c-3.967-1.202-12.982-8.895-12.982-8.895s-0.361-1.563-1.442-1.803c-1.082-0.24-18.992,1.683-18.992,1.683
						s-0.841-2.164-1.923-3.366c-1.082-1.202-4.327-4.688-10.939-5.289c-6.611-0.601-16.949,0.708-20.434,2.284
						c-3.486,1.576-7.453,9.736-7.453,10.097c0,0-23.8,7.934-25.483,9.737c-1.683,1.803-4.448,11.66-6.852,17.67
						c-2.404,6.01-16.227,35.22-18.511,42.792c-2.284,7.573,1.202,15.386,6.25,15.747c5.049,0.361,30.892-1.082,30.892-1.082
						l0.962,8.535l-3.846,34.378c0,0,10.698,10.097,39.547,9.616c28.849-0.481,47-16.588,47-16.588s-0.481-13.823-2.284-21.877
						c-1.803-8.054-8.174-34.498-8.174-34.498l5.77-30.291c0,0,10.217-3.245,19.473-3.967c9.256-0.721,17.189-2.765,19.112-6.852
						C207.138,179.616,205.215,146.182,205.215,146.182z M80.204,224.331l3.846-9.376l1.683,10.578L80.204,224.331z"/>
					<path style="fill:#798ED0;" d="M161.804,287.62c0,0-11.641,87.086-12.122,90.572c-0.481,3.486-1.803,13.944-1.563,16.829
						c0.24,2.885-2.524,25.483-3.245,30.411c-0.721,4.928-2.524,20.555-2.524,20.555l-0.962,2.164c0,0,9.478,0.841,10.208,3.846
						c0.73,3.005-0.472,6.13-4.078,8.534c-3.606,2.404-7.813,5.77-7.813,5.77s-2.524,4.928-6.371,5.529
						c-3.846,0.601-8.414,0.12-10.338-1.442c-1.923-1.563-2.645-15.025-2.645-15.025s-5.649-4.207-5.529-8.054
						s5.049-26.685,6.01-38.104c0.962-11.419,3.246-27.887,3.005-32.094c-0.24-4.207-3.967-53.851-3.967-53.851
						s-17.429,60.462-18.391,63.828c-0.962,3.366-8.895,54.452-8.535,57.457c0.361,3.005,0.457,5.049-0.012,6.491
						c-0.469,1.443-2.272,3.726-2.272,3.726v2.043c0,0,0.361,8.294,0,10.698c-0.361,2.404-3.606,4.087-9.015,3.847
						c-5.409-0.24-6.13-3.005-8.775-4.568c-2.645-1.563-8.054-4.327-7.092-6.972c0.962-2.645,5.289-3.726,5.289-3.726l0.12-6.01
						c0,0-1.803-3.005-1.082-7.092s6.852-56.375,7.573-64.429c0.721-8.054,2.524-31.974,3.847-41.711
						c1.322-9.736,3.125-30.892,3.245-36.301c0.12-5.409,1.082-13.703,1.082-13.703L161.804,287.62z"/>
					<polygon style="fill:#1D1D1B;" points="119.871,323.259 110.735,321.936 118.554,327.828 					"/>
					
						<line style="fill:none;stroke:#1D1D1B;stroke-width:0.5;stroke-linecap:round;stroke-linejoin:round;stroke-miterlimit:10;" x1="78.641" y1="184.784" x2="84.05" y2="214.955"/>
					
						<line style="fill:none;stroke:#1D1D1B;stroke-width:0.5;stroke-linecap:round;stroke-linejoin:round;stroke-miterlimit:10;" x1="85.733" y1="225.533" x2="87.656" y2="245.247"/>
					
						<polygon style="fill:#1D1D1B;stroke:#1D1D1B;stroke-width:0.5;stroke-linecap:round;stroke-linejoin:round;stroke-miterlimit:10;" points="
						80.204,224.331 75.396,231.664 82.968,224.932 					"/>
					
						<path style="fill:none;stroke:#1D1D1B;stroke-width:0.5;stroke-linecap:round;stroke-linejoin:round;stroke-miterlimit:10;" d="
						M161.581,158.46c0,0,5.169,25.844,5.409,31.974"/>
					
						<polygon style="fill:#1D1D1B;stroke:#1D1D1B;stroke-width:0.5;stroke-linecap:round;stroke-linejoin:round;stroke-miterlimit:10;" points="
						187.425,167.715 193.195,167.715 187.425,163.553 					"/>
					
						<path style="fill:none;stroke:#1D1D1B;stroke-width:0.5;stroke-linecap:round;stroke-linejoin:round;stroke-miterlimit:10;" d="
						M187.425,142.112c0,0,2.533-1.923,6.976,0c4.443,1.923,7.611,4.433,10.955,6.724"/>
					
						<path style="fill:none;stroke:#1D1D1B;stroke-width:0.5;stroke-linecap:round;stroke-linejoin:round;stroke-miterlimit:10;" d="
						M101.36,160.383c0,0,18.68-5.201,40.749-3.726"/>
					<path style="fill:#CFAD97;" d="M187.425,139.353c0,0-0.066-0.169-0.184-0.471c-0.934-2.399-5.105-13.198-5.105-14.799
						c0-1.803-0.962-6.251-0.601-6.371c0.361-0.12,1.563-0.601,1.563-0.601s-0.201-0.962,1.342-2.044s4.788-0.361,6.592,1.202
						c1.803,1.563,3.967,5.65,4.808,8.414c0.841,2.765,0.552,16.575,0.552,16.575"/>
					
						<path style="fill:#1D1D1B;stroke:#1D1D1B;stroke-width:0.5;stroke-linecap:round;stroke-linejoin:round;stroke-miterlimit:10;" d="
						M84.771,288.159c0,0,11.539,13.222,39.547,9.616c28.007-3.606,37.485-10.156,37.485-10.156l-0.72,5.389
						c0,0-19.335,9.815-45.78,9.815c-26.445,0-30.532-9.737-30.532-9.737V288.159z"/>
					
						<path style="fill:none;stroke:#1D1D1B;stroke-width:0.5;stroke-linecap:round;stroke-linejoin:round;stroke-miterlimit:10;" d="
						M120.352,455.362c0,0,13.343,5.409,21.036-7.212"/>
					
						<path style="fill:none;stroke:#1D1D1B;stroke-width:0.5;stroke-linecap:round;stroke-linejoin:round;stroke-miterlimit:10;" d="
						M121.993,468.257c0,0,6.532,2.618,11.581,0c5.048-2.618,16.548-10.642,18.191-13.932"/>
					
						<path style="fill:none;stroke:#1D1D1B;stroke-width:0.5;stroke-linecap:round;stroke-linejoin:round;stroke-miterlimit:10;" d="
						M71.188,450.073c0,0,6.13,6.512,11.359,6.441c5.229-0.07,8.114-1.753,8.114-1.753"/>
					
						<path style="fill:none;stroke:#1D1D1B;stroke-width:0.5;stroke-linecap:round;stroke-linejoin:round;stroke-miterlimit:10;" d="
						M66.163,461.873c0,0,6.829,5.029,11.156,5.75c4.327,0.721,10.277,2.705,13.343-1.262"/>
					
						<path style="fill:none;stroke:#1D1D1B;stroke-width:0.5;stroke-linecap:round;stroke-linejoin:round;stroke-miterlimit:10;" d="
						M155.03,295.222c0,0-11.179,89.461-11.72,94.329c-0.541,4.868-4.208,55.146-6.431,63.724"/>
					<g>
						<polygon style="fill:#9FD3ED;" points="188.947,124.945 185.862,123.781 184.362,109.03 190.488,109.264 						"/>
						<path style="fill:#E0E3FA;" d="M190.488,109.264c-0.041,1.079-1.446,1.901-3.137,1.836c-1.692-0.064-3.03-0.991-2.988-2.07
							c0.041-1.079,1.446-1.901,3.137-1.836C189.191,107.258,190.529,108.185,190.488,109.264z"/>
						
							<path style="fill:none;stroke:#1D1D1B;stroke-width:0.5;stroke-linecap:round;stroke-linejoin:round;stroke-miterlimit:10;" d="
							M184.362,109.03c0,0,0.284,1.967,2.988,2.07c2.704,0.103,3.137-1.836,3.137-1.836"/>
					</g>
					
						<path style="fill:none;stroke:#1D1D1B;stroke-width:0.5;stroke-linecap:round;stroke-linejoin:round;stroke-miterlimit:10;" d="
						M183.098,117.11c0,0,1.683,1.093,2.765,4.423v2.248"/>
					
						<line style="fill:none;stroke:#1D1D1B;stroke-width:0.5;stroke-linecap:round;stroke-linejoin:round;stroke-miterlimit:10;" x1="188.947" y1="124.945" x2="189.558" y2="118.724"/>
				</g>
			</g>
		</g>
	</g>
</g>
</svg>
