<?xml version="1.0" encoding="utf-8"?>
<!-- Generator: Adobe Illustrator 27.5.0, SVG Export Plug-In . SVG Version: 6.00 Build 0)  -->
<svg version="1.1" id="Layer_1" xmlns="http://www.w3.org/2000/svg" xmlns:xlink="http://www.w3.org/1999/xlink" x="0px" y="0px"
	 viewBox="0 0 3165.867 2000" style="enable-background:new 0 0 3165.867 2000;" xml:space="preserve">
<g>
	<rect y="-0.001" style="fill:#1e2f49;" width="3165.866" height="2000"/>
	<path style="fill:#CBE2FA;" d="M2106.932,366.757c355.795,287.46,259.557,619.063,259.557,619.063s431.188,63.84,500.271,395.026
		c69.084,331.188-72.895,445.355-72.895,445.355H388.672c0,0-328.659-788.244,82.631-1316.755
		C829.034,49.758,1680.013,21.833,2106.932,366.757z"/>
	<g>
		<polygon style="fill:#184655;" points="1333.205,1224.022 1362.32,1815.826 1338.191,1815.849 1259.379,1217.176 		"/>
		<g>
			<path style="fill:#184655;" d="M2807.796,1826.199c0-5.732-4.316-10.379-9.639-10.379H235.44c-5.447,0-9.862,4.646-9.862,10.379
				l0,0c0,5.734,4.415,10.383,9.862,10.383h2562.717C2803.48,1836.582,2807.796,1831.934,2807.796,1826.199L2807.796,1826.199z"/>
		</g>
		<g>
			<g>
				<path style="fill:#F7A491;" d="M1168.638,755.425l-42.312,119.51c0,0-37.33-77.634-60.867-167.021
					c-37.027,13.205-60.991,28.125-90.235,53.557c34.18,83.026,98.62,219.017,149.51,226.499
					c39.605,5.822,80.014-188.837,80.014-188.837L1168.638,755.425z"/>
				<path style="fill:#F7A491;" d="M1188.527,686.329c4.942-5.192,16.961-10.837,23.028-5.324
					c6.066,5.514,3.598,14.528,7.019,18.991c3.068,4.003,6.536,11.012,8.58,17.439c0.571,1.792,4.577,15.45,5.774,19.348
					c1.2,3.898-28.182,62.35-28.182,62.35l-42.839-21.913C1161.908,777.22,1183.582,691.519,1188.527,686.329z"/>
				<path style="fill:#DED3D4;" d="M1050.304,663.289c0,0,30.425,80.667,38.211,106.141c7.782,25.474,23.35,62.268,23.35,62.268
					l-84.205,54.487L968.22,760.231L1050.304,663.289z"/>
				<path style="fill:#F47458;" d="M1194.318,696.087v2.471c0,6.714-0.964,13.379-2.723,19.855
					c-2.019,7.435-3.894,17.461-0.542,20.812c5.561,5.561,9.558-7.002,9.558-7.002s-10.294,11.073-7.931,15.947
					c3.099,6.397,12.067,0,12.067,0s-6.069,8.411,0,10.722c6.068,2.309,18.361-18.479,18.361-18.479l7.176-10.333l-29.646-35.893
					L1194.318,696.087z"/>
				<g>
					<path style="fill:#FFFFFF;" d="M1225.76,743.285l17.642-0.467l-4.554-16.633l-13.656,0.467
						c-6.458,0.22-11.964-7.062-12.277-16.233l-0.568-16.633c-0.314-9.173,4.681-16.813,11.137-17.035l17.561-0.601l-0.57-16.633
						l-17.559,0.601c-12.912,0.441-22.903,15.724-22.276,34.069l0.569,16.633C1201.834,729.164,1212.849,743.726,1225.76,743.285z"
						/>
				</g>
				<path style="fill:#FFFFFF;" d="M1326.715,657.414l2.607,76.155c0.598,17.492-13.097,32.161-30.591,32.758l-27.146,0.928
					c-17.493,0.6-32.159-13.097-32.758-30.589l-2.936-85.816l90.492-3.097L1326.715,657.414z"/>
				<path style="fill:#F7A491;" d="M1213.472,685.871c0,0-25.423,38.727-22.123,45.481c3.299,6.751,29.478-28,29.478-28
					S1220.086,684.457,1213.472,685.871z"/>
				<path style="fill:#F7A491;" d="M1228.298,713.396c0,0-26.43,36.091-30.861,32.954c-6.996-4.949,22.146-44.945,22.146-44.945
					S1228.298,699.869,1228.298,713.396z"/>
				<path style="fill:#F7A491;" d="M1232.966,726.385c0,0-22.608,29.783-28.219,24.173c-5.608-5.61,23.887-37.628,23.887-37.628
					S1236.393,720.663,1232.966,726.385z"/>
				<path style="fill:#F7A491;" d="M1173.223,734.242c0,0-1.837-30.952,1.627-34.417c3.464-3.465,27.576-17.544,31.09-14.029
					c3.514,3.512-20.53,27.133-20.53,27.133L1173.223,734.242z"/>
			</g>
			<g>
				<path style="fill:#3C8F7C;" d="M1247.183,1266.462H786.172c-39.499,0-71.52,32.021-71.52,71.52v20.948
					c0,39.498,32.021,71.52,71.52,71.52h461.011c39.497,0,71.518-32.021,71.518-71.52v-20.948
					C1318.7,1298.482,1286.68,1266.462,1247.183,1266.462z"/>
				<path style="fill:#50BFA5;" d="M890.474,1280.157h-63.685L660.623,822.581c-6.504-17.247-22.675-28.696-40.793-28.879
					l-199.208-2.858c-30.669-0.31-59.439,43.516-42.456,99.773l127.144,375.466h-0.065l35.06,112.604l373.45,3.926L890.474,1280.157
					z"/>
				<path style="fill:#3C8F7C;" d="M959.82,1284.402l-324.085-0.711L486.113,851.575c-10.222-29.492,11.415-60.372,42.086-60.061
					l216.115,2.188c18.117,0.183,34.29,11.631,40.79,28.879L959.82,1284.402z"/>
				<g>
					<polygon style="fill:#3C8F7C;" points="1101.596,1815.82 931.979,1344.053 899.856,1356.137 1064.933,1815.82 					"/>
				</g>
				<g>
					<polygon style="fill:#3C8F7C;" points="568.278,1815.85 739.367,1341.435 771.489,1353.514 604.68,1815.848 					"/>
				</g>
				<g>
					<polygon style="fill:#3C8F7C;" points="1191.202,1815.835 1025.377,1363.154 1057.495,1351.064 1229.193,1815.82 					"/>
				</g>
				<g>
					<polygon style="fill:#3C8F7C;" points="451.284,1815.849 618.047,1342.835 585.925,1330.519 414.82,1815.849 					"/>
				</g>
				<path style="fill:#50BFA5;" d="M1111.225,1266.572c0,0-219.802,43.494-280.035,33.8c-77.08-12.403-201.421-33.91-201.421-33.91
					c-42.559,0-92.332,32.131-92.332,71.633v20.943c0,39.497,34.501,71.518,77.061,71.518h496.728
					c42.561,0,77.062-32.021,77.062-71.518v-20.943C1188.286,1298.593,1153.785,1266.572,1111.225,1266.572z"/>
				<g>
					<path style="fill:#F7A491;" d="M1142.985,1636.937c8.953,40.361,12.474,115.255,10.642,123.97
						c-0.532,2.526,2.171,12.812,3.54,15.13c52.296,28.778,104.776,16.501,147.462,0.521
						c-29.514-10.207-68.645-23.389-74.557-27.197c-15.409-9.926-7.762-60.895-5.202-125.459
						C1203.893,1647.023,1172.726,1626.663,1142.985,1636.937z"/>
					<path style="fill:#355389;" d="M1153.725,1760.111c-7.69,19.431-5.901,55.131-1.872,55.737
						c4.818,0.728,190.834,4.82,199.941-1.683c14.64-10.6-10.903-24.281-47.166-37.609
						C1261.943,1792.537,1156.244,1773.169,1153.725,1760.111z"/>
					<path style="fill:#466EB6;" d="M913.064,1072.632l3.837,51.219c0,0,358.157,49.858,363.912,115.504
						c5.76,65.652-49.019,471.197-49.019,471.197l-81.4,4.37c0,0-35.698-220.901-31.453-295.907
						c3.859-68.173,19.065-105.256,19.065-105.256s-385.073-18.24-409.56-29.356c-24.487-11.118-41.91-41.763-17.441-139.536
						c24.467-97.771,37.421-122.913,37.421-122.913L913.064,1072.632z"/>
					<path style="fill:#13375B;" d="M1142.396,528.446c8.445-35.287,16.715-70.799-5.545-109.566
						c-18.017-31.372-49.158-49.423-85.2-53.355c-102.127-11.14-80.301,76.506-223.037,95.48
						c-44.351,5.897-85.556,11.563-122.585,31.842c-66.867,36.616-69.634,141.758-47.763,191.043
						c104.646,235.824,375.11,35.398,408.032-10.739C1090.787,638.825,1136.96,551.161,1142.396,528.446z"/>
					<path style="fill:#FFFFFF;" d="M1070.823,735.464c-3.232-30.508-20.519-72.884-20.519-72.884
						c-3.747-30.721-82.084-33.78-117.985-21.448c-90.59,28.556-167.521,267.609-206.363,424.042l188.842,29.933
						c0,0,63.38-206.114,124.856-236.418C1082.467,837.585,1075.62,780.72,1070.823,735.464z"/>
					<path style="fill:#F7A491;" d="M1007.617,544.247c0,0-0.403,2.107-1.128,5.691c-3.476,17.199-14.333,68.409-23.376,84.093
						c-10.928,18.952,24.704,104.246,71.232,96.868c13.851-2.195-7.866-45.846-3.188-66.979
						c2.646-11.95,10.672-49.163,17.148-79.247c4.976-23.115,9.034-42.02,9.034-42.02L1007.617,544.247z"/>
					<path style="fill:#F47458;" d="M1006.489,549.938c0.725-3.584,1.128-5.691,1.128-5.691l69.724-1.594
						c0,0-4.059,18.905-9.034,42.02c-1.742,8.089-3.595,16.693-5.425,25.182c-10.765-1.453-22.012-6.254-33.291-15.312
						c-12.296-9.875-20.354-21.741-25.217-34.409C1005.234,556.092,1005.951,552.606,1006.489,549.938z"/>
					<path style="fill:#F7A491;" d="M1049.556,391.905c0,0-28.433,3.626-49.032,28.071c-20.599,24.444-42.803,100.036,8.37,141.135
						c51.172,41.098,101.734-5.423,109.229-54.748C1125.621,457.038,1124.106,390.124,1049.556,391.905z"/>
					<path style="fill:#F7A491;" d="M1134.502,489.507c-6.108,10.895-16.361,16.926-22.899,13.473
						c-6.54-3.453-6.89-15.083-0.78-25.976c6.105-10.895,16.359-16.928,22.898-13.474
						C1140.26,466.982,1140.61,478.613,1134.502,489.507z"/>
					<path style="fill:#13375B;" d="M1058.221,390.762c0,0-43.906,71.885-75.314,75.207c-31.408,3.322-35.533,41.519-35.533,41.519
						s11.229-88.016,42.325-104.989C1020.792,385.524,1058.221,390.762,1058.221,390.762z"/>
					<path style="fill:#F7A491;" d="M993.177,483.098c2.556,12.766-2.582,24.472-11.473,26.147
						c-8.892,1.676-18.171-7.315-20.726-20.081c-2.555-12.765,2.584-24.472,11.476-26.148
						C981.345,461.34,990.623,470.332,993.177,483.098z"/>
				</g>
				<path style="fill:#F7A491;" d="M1332.461,1560.081c30.584,36.097,48.865,74.749,51.286,79.4
					c1.164,2.23,1.617,15.097,2.764,17.442c47.611,31.322,98.046,22.637,139.447,9.732c-27.256-11.796-65.212-25.467-68.768-31.175
					c-5.663-9.086-30.461-44.165-57.229-103.398C1378.633,1553.309,1361.256,1551.93,1332.461,1560.081z"/>
				<path style="fill:#355389;" d="M1384.24,1641.206c-4.159,19.006-11.841,58.627-2.492,65.014
					c7.306,4.99,168.11,18.044,188.572-2.477c12.306-12.343-10.92-21.831-44.361-37.087
					C1484.557,1679.561,1385.781,1654.093,1384.24,1641.206z"/>
				<path style="fill:#355389;" d="M1418.43,1557.471l-64.87,38.338c0,0-171.835-268.015-185.797-329.347
					c-12.74-55.953-67.484-79.485-67.484-79.485l-183.184-62.857c0,0,289.037,6.422,328.734,30.238
					C1296.261,1184.618,1418.43,1557.471,1418.43,1557.471z"/>
			</g>
		</g>
		<g>
			<path style="fill:#FAE0B2;" d="M2003.716,895.669c-0.391-6.608-5.864-11.768-12.486-11.768h-80.84
				c-6.62,0-12.095,5.16-12.483,11.768l-0.129,2.183h106.067L2003.716,895.669z"/>
			<polygon style="fill:#F7CC7F;" points="1897.778,897.852 1884.647,1120.655 2016.98,1120.655 2003.845,897.852 			"/>
			<path style="fill:#F7CC7F;" d="M1957.101,847.584c0.287-2.322-1.523-4.374-3.864-4.374h-4.849c-2.344,0-4.156,2.052-3.867,4.374
				l0.024,0.204h12.533L1957.101,847.584z"/>
			<g>
				<path style="fill:#F7CC7F;" d="M2010.171,1053.671l-8.92-5.475c30.684-49.959,68.762-127.001,57.342-141.868
					c-15.212-19.804-55.779,9.018-56.185,9.316l-6.184-8.44c1.994-1.46,49.045-35.4,70.67-7.247
					C2086.831,925.911,2023.14,1032.554,2010.171,1053.671z"/>
			</g>
			<polygon style="fill:#F7CC7F;" points="1944.545,847.788 1947.469,871.404 1954.154,871.404 1957.078,847.788 			"/>
			<path style="fill:#F7CC7F;" d="M1950.812,858.904c-21.144,0-38.309,11.143-38.79,24.997h77.583
				C1989.116,870.047,1971.955,858.904,1950.812,858.904z"/>
			<polygon style="fill:#F7CC7F;" points="1895.24,940.844 1891.821,998.857 1854.164,914.273 1874.097,914.273 			"/>
		</g>
		<polygon style="fill:#184655;" points="2220.781,1224.022 2196.524,1815.859 2216.627,1815.849 2282.347,1217.176 		"/>
		<path style="fill:#184655;" d="M2435.176,1235.963H998.921v-9.427c0-58.21,47.186-105.395,105.393-105.395h1225.468
			c58.207,0,105.394,47.185,105.394,105.395V1235.963z"/>
		<polygon style="fill:#184655;" points="1217.799,1219.519 1245.802,1820.166 1221.908,1820.174 1143.973,1212.613 		"/>
		<polygon style="fill:#184655;" points="2317.018,1219.519 2293.666,1815.827 2319.329,1815.82 2378.579,1212.613 		"/>
		<g>
			<g>
				<g>
					<g>
						<path style="fill:#FAE0B2;" d="M2808.484,1236.256c-6.164-1.832-12.647,1.678-14.481,7.841
							c-1.828,6.163,1.681,12.645,7.848,14.475c6.167,1.835,12.651-1.677,14.482-7.839
							C2818.165,1244.569,2814.651,1238.086,2808.484,1236.256z"/>
						<path style="fill:#F47458;" d="M2797.884,1251.987c-5.793-5.422-0.291-14.967,7.286-12.715
							c3.942,1.171,6.276,5.312,5.073,9.359C2808.637,1254.025,2801.914,1255.76,2797.884,1251.987L2797.884,1251.987z"/>
					</g>
					<g>
						<path style="fill:#FAE0B2;" d="M2801.18,1175.75c-5.55,3.242-12.686,1.371-15.933-4.177
							c-3.245-5.552-1.374-12.684,4.179-15.926c5.552-3.246,12.684-1.375,15.933,4.176
							C2808.604,1165.376,2806.735,1172.506,2801.18,1175.75z"/>
						<path style="fill:#F47458;" d="M2786.94,1170.904c-2.095-3.587-0.882-8.203,2.702-10.299c2.857-1.666,6.534-1.257,8.944,0.998
							c0.531,0.495,0.984,1.068,1.354,1.704c1.02,1.735,1.293,3.762,0.786,5.71
							C2799.025,1175.499,2790.292,1176.636,2786.94,1170.904z"/>
					</g>
					<g>
						<path style="fill:#FAE0B2;" d="M2809.816,1230.545c-6.339-1.084-10.602-7.101-9.521-13.439
							c1.082-6.338,7.103-10.595,13.443-9.512c6.339,1.083,10.604,7.097,9.52,13.438
							C2822.176,1227.367,2816.157,1231.627,2809.816,1230.545z"/>
						<path style="fill:#F47458;" d="M2802.025,1217.684c1.011-5.93,8.232-8.287,12.559-4.236c5.505,5.148,0.832,14.16-6.404,12.922
							C2804.094,1225.674,2801.32,1221.802,2802.025,1217.684z"/>
					</g>
					<g>
						<path style="fill:#FAE0B2;" d="M2781.198,1278.063c-4.165-4.906-3.56-12.252,1.343-16.41c4.909-4.16,12.26-3.555,16.42,1.348
							s3.558,12.252-1.346,16.412C2792.708,1283.566,2785.363,1282.965,2781.198,1278.063z"/>
						<path style="fill:#F47458;" d="M2782.622,1273.812c-2.685-3.165-2.294-7.926,0.873-10.608
							c3.149-2.672,7.889-2.332,10.615,0.869c2.688,3.17,2.296,7.927-0.871,10.612
							C2790.09,1277.354,2785.35,1277.018,2782.622,1273.812z"/>
					</g>
					<g>
						<path style="fill:#FAE0B2;" d="M2663.882,1168.259c5.169,3.826,12.461,2.744,16.294-2.423
							c3.829-5.162,2.742-12.454-2.426-16.283c-5.169-3.827-12.462-2.748-16.291,2.422
							C2657.629,1157.139,2658.714,1164.429,2663.882,1168.259z"/>
						<path style="fill:#F47458;" d="M2667.357,1165.99c-2.788-2.607-3.172-6.893-0.893-9.965c2.658-3.591,7.895-4.103,11.205-1.006
							c2.788,2.611,3.17,6.897,0.893,9.97C2675.887,1168.599,2670.66,1169.085,2667.357,1165.99L2667.357,1165.99z"/>
					</g>
					<g>
						<path style="fill:#FAE0B2;" d="M2709.443,1136.595c1.493,6.251,7.781,10.109,14.037,8.614
							c6.256-1.497,10.111-7.777,8.614-14.033c-1.497-6.252-7.783-10.108-14.037-8.61
							C2711.798,1124.059,2707.941,1130.342,2709.443,1136.595z"/>
						<path style="fill:#F47458;" d="M2715.884,1141.691c-4.34-4.062-2.45-11.413,3.398-12.807c4.044-0.97,8.108,1.519,9.075,5.568
							C2730.093,1141.686,2721.324,1146.781,2715.884,1141.691L2715.884,1141.691z"/>
					</g>
					<g>
						<path style="fill:#FAE0B2;" d="M2764.709,1141.61c-2.878,5.752-0.542,12.744,5.216,15.616
							c5.751,2.876,12.748,0.54,15.623-5.209c2.871-5.752,0.536-12.746-5.217-15.618
							C2774.575,1133.527,2767.581,1135.857,2764.709,1141.61z"/>
						<path style="fill:#F47458;" d="M2771.459,1141.621c1.904-0.637,3.95-0.494,5.749,0.403c5.986,2.995,5.354,11.762-0.981,13.876
							c-1.909,0.638-3.95,0.492-5.749-0.405C2764.505,1152.509,2765.114,1143.734,2771.459,1141.621z"/>
					</g>
					<g>
						<path style="fill:#FAE0B2;" d="M2703.824,1138.297c2.234,6.029-0.844,12.727-6.876,14.96
							c-6.034,2.23-12.732-0.848-14.967-6.876c-2.234-6.03,0.846-12.729,6.876-14.961
							C2694.891,1129.188,2701.591,1132.269,2703.824,1138.297z"/>
						<path style="fill:#F47458;" d="M2687.127,1141.271c2.778-6.052,11.571-5.763,13.904,0.529
							c1.439,3.893-0.556,8.232-4.448,9.672C2690.273,1153.808,2684.351,1147.308,2687.127,1141.271z"/>
					</g>
					<g>
						<path style="fill:#FAE0B2;" d="M2803.826,1180.963c-5.902,2.555-8.607,9.413-6.049,15.309
							c2.565,5.902,9.423,8.607,15.322,6.049c5.901-2.561,8.607-9.416,6.047-15.315
							C2816.582,1181.109,2809.724,1178.401,2803.826,1180.963z"/>
						<path style="fill:#F47458;" d="M2799.316,1195.303c-1.649-3.809,0.103-8.251,3.913-9.903c3.799-1.646,8.241,0.078,9.905,3.912
							c1.652,3.807-0.102,8.249-3.91,9.898c-2.756,1.195-5.955,0.642-8.148-1.41
							C2800.888,1197.586,2799.986,1196.841,2799.316,1195.303z"/>
					</g>
					<g>
						<path style="fill:#FAE0B2;" d="M2759.309,1139.309c-2.166,6.053-8.832,9.205-14.89,7.037
							c-6.054-2.166-9.208-8.828-7.046-14.881c2.168-6.055,8.836-9.207,14.891-7.041
							C2758.322,1126.591,2761.476,1133.253,2759.309,1139.309z"/>
						<path style="fill:#F47458;" d="M2740.734,1135.124c1.832-5.12,8.318-6.631,12.233-2.964c2.196,2.052,2.961,5.205,1.949,8.033
							c-1.4,3.91-5.719,5.949-9.627,4.554C2741.353,1143.338,2739.336,1139.024,2740.734,1135.124z"/>
					</g>
					<path style="fill:#F47458;" d="M2736.6,1219.172l57.698,24.477l0.857-2.023l-60.121-25.506l65.201,3.715l0.125-2.193
						l-62.576-3.564l59.931-18.336l-0.646-2.103l-62.438,19.106l52.326-39.046l-1.318-1.759l-50.221,37.475l34.111-52.555
						l-1.843-1.194l-35.546,54.757l14.958-63.542l-2.139-0.502l-14.353,60.975l-7.665-62.173l-2.185,0.268l7.987,64.788
						l-29.405-58.293l-1.963,0.994l28.219,55.937l-45.852-42.713l-1.499,1.606l102.497,95.935l1.507-1.599L2736.6,1219.172z"/>
				</g>
				<g>
					
						<rect x="2486.918" y="1313.743" transform="matrix(0.683 -0.7304 0.7304 0.683 -128.019 2341.928)" style="fill:#F47458;" width="294.204" height="9.411"/>
				</g>
			</g>
			<g>
				<g>
					<g>
						<path style="fill:#FAE0B2;" d="M2829.749,949.106c-10.876,0.473-19.318,9.671-18.85,20.547
							c0.465,10.878,9.661,19.31,20.54,18.839c10.875-0.473,19.313-9.672,18.849-20.547
							C2849.821,957.067,2840.624,948.638,2829.749,949.106z"/>
						<path style="fill:#F47458;" d="M2821.459,980.142c-12.263-5.481-8.719-23.797,4.646-24.378
							c6.954-0.301,12.976,5.044,13.281,12.181C2839.792,977.467,2829.987,983.952,2821.459,980.142L2821.459,980.142z"/>
					</g>
					<g>
						<path style="fill:#FAE0B2;" d="M2784.699,856.3c-7.097,8.258-19.545,9.202-27.802,2.109
							c-8.254-7.09-9.192-19.534-2.094-27.792c7.097-8.258,19.543-9.204,27.797-2.109
							C2790.86,835.601,2791.796,848.042,2784.699,856.3z"/>
						<path style="fill:#F47458;" d="M2759.242,856.406c-5.332-4.578-5.94-12.637-1.359-17.969c3.65-4.248,9.762-5.619,14.863-3.342
							c1.12,0.501,2.166,1.168,3.11,1.977c2.584,2.215,4.147,5.311,4.4,8.704C2781.113,857.089,2767.764,863.733,2759.242,856.406z"
							/>
					</g>
					<g>
						<path style="fill:#FAE0B2;" d="M2828.73,939.233c-10.745,1.764-20.88-5.508-22.642-16.253
							c-1.763-10.74,5.518-20.88,16.261-22.647c10.741-1.767,20.88,5.506,22.642,16.25
							C2846.754,927.323,2839.475,937.462,2828.73,939.233z"/>
						<path style="fill:#F47458;" d="M2809.163,922.948c-1.646-10.043,8.608-17.806,17.768-13.713
							c11.644,5.202,9.137,22.203-3.125,24.22C2816.889,934.594,2810.311,929.927,2809.163,922.948z"/>
					</g>
					<g>
						<path style="fill:#FAE0B2;" d="M2809.137,1031.084c-9.361-5.553-12.449-17.642-6.895-27.008
							c5.558-9.363,17.648-12.455,27.014-6.904c9.36,5.551,12.449,17.639,6.892,27.005
							C2830.593,1033.542,2818.498,1036.631,2809.137,1031.084z"/>
						<path style="fill:#F47458;" d="M2809.079,1023.493c-6.044-3.586-8.044-11.415-4.458-17.458
							c3.563-6.016,11.333-8.09,17.465-4.467c6.041,3.583,8.044,11.416,4.456,17.46
							C2822.973,1025.042,2815.206,1027.116,2809.079,1023.493z"/>
					</g>
					<g>
						<path style="fill:#FAE0B2;" d="M2560.872,920.116c10.382,3.271,21.458-2.49,24.734-12.871
							c3.284-10.382-2.476-21.45-12.856-24.727c-10.379-3.273-21.454,2.485-24.736,12.87
							C2544.734,905.768,2550.492,916.838,2560.872,920.116z"/>
						<path style="fill:#F47458;" d="M2565.183,914.568c-5.899-2.639-8.875-9.283-6.927-15.458
							c2.281-7.213,10.374-10.925,17.383-7.794c5.896,2.636,8.875,9.28,6.921,15.461
							C2580.269,914.034,2572.176,917.693,2565.183,914.568L2565.183,914.568z"/>
					</g>
					<g>
						<path style="fill:#FAE0B2;" d="M2616.314,844.283c5.843,9.183,18.027,11.885,27.214,6.038
							c9.184-5.851,11.889-18.035,6.045-27.216c-5.842-9.18-18.025-11.883-27.211-6.035
							C2613.175,822.917,2610.467,835.101,2616.314,844.283z"/>
						<path style="fill:#F47458;" d="M2629.431,848.885c-9.179-4.104-10.211-16.915-1.625-22.38
							c5.94-3.78,13.819-2.034,17.599,3.904C2652.163,841.031,2640.942,854.029,2629.431,848.885L2629.431,848.885z"/>
					</g>
					<g>
						<path style="fill:#FAE0B2;" d="M2707.513,821.802c-1.43,10.791,6.163,20.691,16.957,22.114
							c10.792,1.421,20.699-6.175,22.127-16.966c1.425-10.793-6.166-20.696-16.957-22.117
							C2718.845,803.41,2708.939,811.008,2707.513,821.802z"/>
						<path style="fill:#F47458;" d="M2718.318,818.09c2.704-2.073,6.052-2.972,9.424-2.526
							c11.235,1.483,15.056,15.867,6.084,22.746c-2.703,2.071-6.053,2.968-9.426,2.523
							C2713.194,839.352,2709.333,824.977,2718.318,818.09z"/>
					</g>
					<g>
						<path style="fill:#FAE0B2;" d="M2608.265,850.11c6.901,8.415,5.668,20.835-2.753,27.74
							c-8.422,6.903-20.841,5.673-27.741-2.744c-6.9-8.417-5.663-20.836,2.756-27.738
							C2588.948,840.463,2601.367,841.693,2608.265,850.11z"/>
						<path style="fill:#F47458;" d="M2583.182,864.087c1.119-11.216,15.342-15.611,22.543-6.829
							c4.453,5.437,3.655,13.482-1.78,17.936C2595.135,882.413,2582.073,875.282,2583.182,864.087z"/>
					</g>
					<g>
						<path style="fill:#FAE0B2;" d="M2791.804,863.184c-8.031,7.352-8.582,19.82-1.233,27.846
							c7.351,8.025,19.818,8.571,27.85,1.216c8.03-7.355,8.581-19.82,1.229-27.846
							C2812.302,856.373,2799.834,855.829,2791.804,863.184z"/>
						<path style="fill:#F47458;" d="M2792.499,888.623c-4.745-5.181-4.387-13.257,0.793-18.003
							c5.173-4.737,13.231-4.427,18.009,0.787c4.742,5.178,4.387,13.257-0.797,18.003c-3.751,3.437-9.177,4.317-13.819,2.242
							C2796.274,891.416,2794.415,890.714,2792.499,888.623z"/>
					</g>
					<g>
						<path style="fill:#FAE0B2;" d="M2697.604,821.095c-0.124,10.883-9.056,19.611-19.942,19.487
							c-10.885-0.122-19.604-9.047-19.477-19.932c0.126-10.885,9.056-19.609,19.938-19.486
							C2689.012,801.287,2697.734,810.21,2697.604,821.095z"/>
						<path style="fill:#F47458;" d="M2665.574,824.653c0.108-9.206,9.653-15.202,17.939-11.498
							c4.643,2.075,7.608,6.703,7.546,11.788c-0.081,7.025-5.867,12.676-12.893,12.598
							C2671.099,837.461,2665.491,831.668,2665.574,824.653z"/>
					</g>
					<path style="fill:#F47458;" d="M2705.307,961.457l105.813,7.313l0.256-3.71l-110.262-7.624l106.378-30.055l-1.008-3.581
						l-102.097,28.845l85.788-62.432l-2.191-3.007l-89.379,65.049l62.201-91.38l-3.076-2.091l-59.698,87.706l25.606-102.944
						l-3.609-0.897l-26.683,107.259l-11.108-109.953l-3.701,0.377l10.659,105.515l-46.545-95.276l-3.347,1.633l48.507,99.286
						l-79.195-77.063l-2.595,2.669l75.996,73.949L2585.098,908l-1.511,3.399l216.909,96.956l1.528-3.394L2705.307,961.457z"/>
				</g>
				<g>
					
						<rect x="2346.843" y="1169.016" transform="matrix(0.408 -0.913 0.913 0.408 462.2737 3066.8533)" style="fill:#F47458;" width="498.127" height="15.927"/>
				</g>
			</g>
			<g>
				<g>
					<path style="fill:#355389;" d="M2370.9,1599.221c0,0,206.514-153.363,234.813-219.457
						c28.298-66.094-30.053-58.631-30.053-58.631s83.39-118.207,61.26-157.267c-22.135-39.064-68.187,10.819-68.187,10.819
						s38.684-159.911,5.049-168.808c-62.648-16.568-114.058,155.534-114.058,155.534s4.611-71.448-34.602-61.826
						c-59.137,14.514-27.854,168.344-27.854,168.344s-18.853-27.275-51.281-1.327
						C2287.798,1313.164,2370.9,1599.221,2370.9,1599.221z"/>
				</g>
				<path style="fill:#13375B;" d="M2337.24,1270.584c32.431-25.955,60.03-2.654,60.03-2.654s-31.283-153.83,27.854-168.344
					c39.213-9.622,34.602,61.826,34.602,61.826s51.409-172.103,114.058-155.534l-204.418,592.856
					C2360.223,1561.709,2282.888,1314.07,2337.24,1270.584z"/>
			</g>
			<g>
				<path style="fill:#466EB6;" d="M2371.178,1593.892c0,0,143.181,3.383,217.512-17.839c14.958-4.272,30.479-12.936,37.798-19.081
					c43.678-36.697-9.898-39.557-9.898-39.557s121.276-65.145,119.8-100.96c-1.474-35.818-48.928-36.697-48.928-36.697
					s66.6-77.47,40.775-108.731c-32.876-39.796-115.528,38.056-115.528,38.056s9.263-28.828-21.747-36.246
					c-46.759-11.18-94.519,154.192-94.519,154.192s6.136-67.519-25.99-60.863
					C2412.815,1378.111,2371.178,1593.892,2371.178,1593.892z"/>
			</g>
			<g>
				<g>
					<path style="fill:#355389;" d="M2362.389,1605.683c0,0-187.834-160.369-210.754-224.971
						c-22.917-64.601,32.146-53.963,32.146-53.963s-80.887-126.238-57.462-162.063c23.424-35.823,64.02,7.841,64.02,7.841
						s-18.202-139.187,14.339-145.608c60.611-11.962,99.09,154.902,99.09,154.902s-0.059-68.259,36.669-56.724
						c55.386,17.396,16.298,161.859,16.298,161.859s20.442-54.009,49.728-27.35
						C2458.998,1307.435,2362.389,1605.683,2362.389,1605.683z"/>
				</g>
				<path style="fill:#466EB6;" d="M2414.705,1227.416c-34.604-19.242-45.685,14.627-45.685,14.627s26.802-99.549-28.584-116.945
					c-36.728-11.535-36.669,56.724-36.669,56.724s-38.479-166.864-99.09-154.902l161.118,595.9
					C2376.736,1588.147,2465.192,1255.488,2414.705,1227.416z"/>
			</g>
			<g>
				<g>
					<path style="fill:#13375B;" d="M2343.473,1582.654c0,0-130.79,0.436-198.585-1.232c-17.343-0.423-30.604-1.348-36.452-2.026
						c-28.7-3.339,3.009-28.972,3.009-28.972s-59.063,6.821-68.851-8.804c-9.786-15.623,11.297-26.26,11.297-26.26
						s-40.882-20.638-37.829-34.24c5.684-25.337,53.245-6.723,53.245-6.723s-11.896-10.092-1.237-21.936
						c16.078-17.858,70.404,28.058,70.404,28.058s-22.825-44.047-10.567-54.965
						C2190.66,1369.674,2343.473,1582.654,2343.473,1582.654z"/>
				</g>
			</g>
			<path style="fill:#F47458;" d="M2194.644,1815.82h343.099c43.738-39.969,70.582-95.813,69.61-156.195
				c-0.491-30.496-6.765-57.081-19.851-83.184l-442.771,4.975c-12.238,26.523-18.801,55.65-18.309,86.146
				C2127.345,1725.092,2153.291,1777.746,2194.644,1815.82z"/>
		</g>
		<g>
			<path style="fill:#F47458;" d="M1392.463,1015.924c0,0,31.874-0.613,61.412-33.114c29.539-32.501,99.445-50.045,156.263-46.158
				c56.817,3.888,113.355,43.949,131.948,89.745c18.593,45.797,18.193,97.044,18.193,97.044l-464.755-1.709
				c-5.617-0.044-12.876-6.186-12.792-7.169c0.631-7.461,3.181-19.8,18.375-18.098
				C1328.646,1099.551,1392.463,1015.924,1392.463,1015.924z"/>
			<path style="fill:#B75742;" d="M1664.54,1029.525c0,0-40.933-52.86-79.431-49.714s-44.787,73.439-20.578,98.607
				c23.647,24.584,27.693,20.027,27.693,20.027s-38.471-0.3-51.146,5.343c-12.679,5.645-8.664,17.878-8.664,17.878l185.377,1.3
				C1717.791,1122.966,1700.967,1071.154,1664.54,1029.525z"/>
			<path style="fill:#B75742;" d="M1400.193,1074.124l26.417-18.852c0,0,19.348,4.135,45.932,19.415
				c26.582,15.28,28.264,20.462,30.323,32.537c2.06,12.075-0.379,14.208-0.379,14.208l-42.85-0.333L1400.193,1074.124z"/>
			<path style="fill:#F47458;" d="M1437.487,1059.628c0,0,37.735,20.967,50.866,30.83c13.13,9.864,6.039,30.894,6.039,30.894
				l-152.514-1.117c-4.292-0.033-62.646,19.48-62.604,15.187c0.08-7.511-0.39-40.955,27-38.916
				c43.043,3.207,73.596-12.06,71.944-21.26S1414.065,1043.942,1437.487,1059.628z"/>
			<path style="fill:#F47458;" d="M1678.319,1029.921c0,0-53.484-53.964-91.982-50.818c-38.498,3.146-30.588,84.317-3.184,104.629
				c27.405,20.311,35.461,18.076,35.461,18.076s-51.079-3.27-63.758,2.375c-12.677,5.643-8.795,17.615-8.795,17.615l185.452,1.413
				C1731.513,1123.212,1714.745,1071.549,1678.319,1029.921z"/>
			<path style="fill:#B75742;" d="M1314.391,1093.2c30.729-15.238,78.072-77.276,78.072-77.276s8.681-0.168,21.181-4.948
				c1.068,16.294-2.354,43.463-24.61,80.941C1389.033,1091.917,1346.067,1100.992,1314.391,1093.2z"/>
			<path style="fill:#F47458;" d="M1339.673,937.131c0,0,30.28,19.759,29.576,36.407c0,0,28.033,13.424,30.285,19.185
				c2.251,5.759,12.905,38.573-19.7,96.317c0,0-67.302,14.979-91.795-10.478l-11.789-34.544c0,0-24.486-26.605-24.348-44.406
				l40.71,7.781c0,0,29.504-27.906,41.562-27.813L1339.673,937.131z"/>
		</g>
		<path style="fill:#F47458;" d="M1753.034,1062.697c0,0,1.542,23.268-21.42,40.747c-22.962,17.479-84.524,14.416-120.288,16.721
			c-35.763,2.307-53.924,11.639-60.167,39.153c-6.244,27.514-0.968,68.9,29.128,75.595c30.095,6.693,0.842,57.717-41.545,25.516
			c-42.385-32.198-54.073-79.664-29.636-120.817c24.438-41.154,52.563-58.162,111.979-55.978
			c59.416,2.187,112.816,2.603,114.725-21.07C1737.716,1038.892,1753.034,1062.697,1753.034,1062.697z"/>
		<path style="fill:#F7A491;" d="M976.02,758.497c-10.073,93.978,10.774,226.418,10.774,226.418l193.177,62.98
			c0,0,32.979-13.053,43.516-8.882c10.537,4.179,33.679,10.724,30.075,16.664c-3.604,5.941-23.236-5.124-28.338-3.048
			c-5.104,2.074,13.632,19.352,21.5,24.122c7.868,4.774,66.067-4.99,74.777-4.137c4.693,0.458-0.063,3.979-7.276,7.176
			c8.37-1.784,16.92-2.74,19.966-0.217c6.652,5.509-34.129,16.972-34.129,16.972s53.843-10.186,29.453,0.878
			c0,0-56.704,28.448-88.69,12.739c-31.984-15.708-40.792-17.592-51.526-22.075c-3.123-1.299-242.723-12.692-259.82-28.162
			c-40.643-36.78-58.057-196.933-60.642-289.452C906.544,759.004,935.265,755.169,976.02,758.497z"/>
		<path style="fill:#DED3D4;" d="M998.681,719.504c-1.441-27.223-7.709-62.24-36.796-71.822
			c-18.026-5.939-38.844-2.632-53.426,8.491c-17.345,13.233-37.477,40.12-39.812,62.164c-5.043,47.674-3.642,91.875,4.684,139.415
			c32.992-16.74,79.427-6.238,117.213-9.818C990.531,847.652,1000.585,755.478,998.681,719.504z"/>
	</g>
</g>
</svg>
